HIERARCHY
ROOT Hips
{
	OFFSET 0.00 0.00 0.00
	CHANNELS 6 Xposition Yposition Zposition Xrotation Yrotation Zrotation
	JOINT LeftUpLeg
	{
		OFFSET 3.44811 0.00000 0.00000
		CHANNELS 3 Xrotation Yrotation Zrotation
		JOINT LeftLeg
		{
			OFFSET 0.00000 -16.89127 0.00000
			CHANNELS 3 Xrotation Yrotation Zrotation
			JOINT LeftFoot
			{
				OFFSET 0.00000 -16.21733 0.00000
				CHANNELS 3 Xrotation Yrotation Zrotation
				JOINT LeftToeBase
				{
					OFFSET 0.00000 -1.79183 6.68720
					CHANNELS 3 Xrotation Yrotation Zrotation
					End Site
					{
						OFFSET 0.00000 0.00000 2.95275
					}
				}
			}
		}
	}
	JOINT RightUpLeg
	{
		OFFSET -3.44811 0.00000 0.00000
		CHANNELS 3 Xrotation Yrotation Zrotation
		JOINT RightLeg
		{
			OFFSET 0.00000 -16.89127 0.00000
			CHANNELS 3 Xrotation Yrotation Zrotation
			JOINT RightFoot
			{
				OFFSET 0.00000 -16.21733 0.00000
				CHANNELS 3 Xrotation Yrotation Zrotation
				JOINT RightToeBase
				{
					OFFSET 0.00000 -1.79183 6.68720
					CHANNELS 3 Xrotation Yrotation Zrotation
					End Site
					{
						OFFSET 0.00000 0.00000 2.95275
					}
				}
			}
		}
	}
	JOINT Spine
	{
		OFFSET 0.00000 0.03937 0.00000
		CHANNELS 3 Xrotation Yrotation Zrotation
		JOINT Spine1
		{
			OFFSET 0.00000 10.84478 0.00000
			CHANNELS 3 Xrotation Yrotation Zrotation
			JOINT Neck
			{
				OFFSET 0.00000 8.84498 0.00000
				CHANNELS 3 Xrotation Yrotation Zrotation
				JOINT Head
				{
					OFFSET 0.00000 5.71605 0.00000
					CHANNELS 3 Xrotation Yrotation Zrotation
					End Site
					{
						OFFSET 0.00000 4.52755 0.00000
					}
				}
			}
			JOINT LeftShoulder
			{
				OFFSET 0.00000 8.84498 0.00000
				CHANNELS 3 Xrotation Yrotation Zrotation
				JOINT LeftArm
				{
					OFFSET 6.73125 -0.00002 0.00000
					CHANNELS 3 Xrotation Yrotation Zrotation
					JOINT LeftForeArm
					{
						OFFSET 11.19281 -0.00004 0.00000
						CHANNELS 3 Xrotation Yrotation Zrotation
						JOINT LeftHand
						{
							OFFSET 9.77593 -0.00004 0.00000
							CHANNELS 3 Xrotation Yrotation Zrotation
							JOINT LeftHandThumb
							{
								OFFSET 0.00000 0.00000 0.00000
								CHANNELS 3 Xrotation Yrotation Zrotation
								End Site
								{
									OFFSET 0.00000 0.00000 3.93700
								}
							}
							JOINT L_Wrist_End
							{
								OFFSET 3.93700 -0.00001 0.00000
								CHANNELS 3 Xrotation Yrotation Zrotation
							}
						}
					}
				}
			}
			JOINT RightShoulder
			{
				OFFSET 0.00000 8.84498 0.00000
				CHANNELS 3 Xrotation Yrotation Zrotation
				JOINT RightArm
				{
					OFFSET -6.73125 -0.00002 0.00000
					CHANNELS 3 Xrotation Yrotation Zrotation
					JOINT RightForeArm
					{
						OFFSET -11.19281 -0.00004 0.00000
						CHANNELS 3 Xrotation Yrotation Zrotation
						JOINT RightHand
						{
							OFFSET -9.77593 -0.00004 0.00000
							CHANNELS 3 Xrotation Yrotation Zrotation
							JOINT RightHandThumb
							{
								OFFSET 0.00000 0.00000 0.00000
								CHANNELS 3 Xrotation Yrotation Zrotation
								End Site
								{
									OFFSET 0.00000 0.00000 3.93700
								}
							}
							JOINT R_Wrist_End
							{
								OFFSET -5.39369 -0.00002 0.00000
								CHANNELS 3 Xrotation Yrotation Zrotation
							}
						}
					}
				}
			}
		}
	}
}
MOTION
Frames: 19
Frame Time: 0.066664
 -80.6305 29.7429 59.8749 154.0587 50.8301 -159.1764 -2.1283 7.1373 2.1147 43.4345 -0.0000 0.0000 -39.3534 -1.8797 7.6962 -23.0344 0.0000 -0.0000 -60.9314 -1.6912 3.4026 76.3970 -0.0000 0.0000 -33.4343 0.0297 -11.9536 -14.9543 -0.0000 -0.0000 -1.6727 2.4978 -1.9727 13.5637 -5.1640 3.6494 16.5022 27.2046 1.9936 -10.6910 -11.8418 -2.9596 4.4042 6.0177 0.0795 -24.0705 -30.5671 -62.5141 -0.0005 -68.1089 -0.0004 -15.4112 16.2404 27.8412 -0.0000 -0.0000 0.0000 -0.0000 -0.0000 0.0000 9.5799 -3.6154 -0.4708 26.7326 19.5258 70.8555 -0.0001 26.2779 0.0000 -3.9193 -6.1109 -0.2637 -0.0000 0.0000 -0.0000 -0.0000 0.0000 -0.0000
 -76.6500 31.2822 57.4951 151.4883 49.1135 -158.0324 8.4695 6.3779 4.0126 25.6539 -0.0000 0.0000 -14.0116 -6.5097 8.2447 -32.9474 0.0000 -0.0000 -59.9329 -4.3822 -0.3465 67.6225 -0.0000 0.0000 -32.5715 1.4071 -10.7391 -15.4717 0.0000 -0.0000 -2.4263 1.2031 -0.3000 11.3437 -6.4058 4.6275 17.0551 27.3372 1.9699 -9.1793 -11.8134 -4.2034 4.3071 6.9764 1.9429 -19.2160 -30.4321 -64.1782 -0.0006 -72.0489 -0.0005 -16.9795 9.5008 29.4714 -0.0000 0.0000 -0.0000 -0.0000 0.0000 -0.0000 11.3837 -4.8970 -2.7611 31.4342 16.3311 72.9029 -0.0001 24.7124 0.0000 -5.5263 -8.7180 1.4985 -0.0000 0.0000 -0.0000 -0.0000 0.0000 -0.0000
 -72.5400 32.2454 55.0637 147.2980 49.1311 -154.6953 9.1507 0.2574 4.1870 27.7537 -0.0000 0.0000 7.7637 -3.4159 4.3654 -10.6279 -0.0000 -0.0000 -56.2462 -7.8088 -2.3189 58.2221 0.0000 0.0000 -31.3695 1.8935 -10.3234 -16.9148 -0.0000 -0.0000 -2.5271 1.2503 0.6726 10.0367 -6.2756 5.7905 16.0707 27.9605 1.5241 -9.2722 -12.3663 -5.2739 4.0849 7.3232 2.9976 -11.0417 -31.1402 -66.0757 -0.0006 -69.4931 -0.0004 -15.3352 8.5984 29.8292 -0.0000 0.0000 -0.0000 -0.0000 0.0000 -0.0000 10.4790 -4.3906 -3.3931 30.6315 15.5624 73.9715 -0.0001 25.1158 0.0000 -6.5570 -7.7125 4.0177 -0.0000 0.0000 -0.0000 -0.0000 0.0000 -0.0000
 -68.4591 31.7693 52.7495 143.2277 51.2348 -152.5371 -1.2757 -1.3425 4.2259 52.9331 -0.0000 0.0000 -3.8049 0.7234 11.0388 -10.9701 -0.0000 0.0000 -48.8599 -8.8519 -0.1134 58.1107 -0.0000 0.0000 -34.6220 2.7581 -6.6334 -19.3852 0.0000 -0.0000 -1.5129 1.8593 1.5566 9.8692 -5.3284 8.4253 13.6508 29.6779 1.5082 -8.4068 -12.9669 -7.5517 5.8293 8.7861 1.0161 -3.7689 -32.0318 -69.6403 -0.0003 -57.5721 -0.0002 -19.0280 7.7316 31.1598 -0.0000 0.0000 -0.0000 -0.0000 0.0000 -0.0000 8.4095 -2.2984 -1.4660 23.1043 17.7325 71.0568 -0.0001 27.1061 0.0000 -8.9552 -5.2954 2.5381 -0.0000 0.0000 -0.0000 -0.0000 0.0000 -0.0000
 -64.4146 30.6890 50.4191 135.8821 57.8263 -147.8435 -19.5965 0.5342 4.7131 81.2190 -0.0000 0.0000 -18.0137 3.3102 18.2858 -9.6703 0.0000 0.0000 -41.7297 -6.0375 5.3922 61.5090 -0.0000 0.0000 -41.3210 4.8351 -7.2538 -18.0878 -0.0000 -0.0000 -0.5711 4.8011 2.5344 11.4548 -2.1889 10.1900 13.9117 32.3117 0.8527 -11.7275 -13.2533 -12.1865 7.4087 10.2009 -2.3795 7.3279 -36.6604 -71.6318 -0.0002 -40.5602 -0.0001 -24.0744 13.3049 27.0470 -0.0000 0.0000 -0.0000 -0.0000 0.0000 -0.0000 6.0217 1.5774 2.8495 8.0200 22.0242 64.8943 -0.0001 28.0500 0.0000 -11.7600 -2.8543 -0.5870 -0.0000 0.0000 -0.0000 -0.0000 0.0000 -0.0000
 -59.8336 29.9848 47.7375 131.7535 62.9085 -142.0660 -42.7491 1.9598 5.1237 97.1018 -0.0000 0.0000 -26.4889 4.0599 19.9462 -8.6739 0.0000 0.0000 -29.3154 -0.6043 5.2654 58.8845 -0.0000 0.0000 -47.5648 5.7421 -6.6684 -19.3383 0.0000 -0.0000 -0.6521 7.5100 1.3175 14.0565 -0.2379 7.6577 13.6956 32.9684 1.3869 -11.4123 -12.8535 -13.1112 8.3566 13.2505 0.2868 30.9801 -49.5587 -66.0285 -0.0002 -40.2632 -0.0001 -17.5738 18.4170 16.7623 -0.0000 0.0000 -0.0000 -0.0000 0.0000 -0.0000 3.2542 4.3718 0.7111 -12.5533 25.5924 69.1616 -0.0002 37.0772 0.0001 -8.0875 -0.8775 -8.4685 -0.0000 0.0000 -0.0000 -0.0000 0.0000 -0.0000
 -54.0711 30.4832 44.4556 134.1861 62.6419 -140.3018 -62.1266 4.1091 4.8300 88.5283 -0.0000 0.0000 -27.7050 4.5784 19.8446 -9.2208 -0.0000 0.0000 -7.3564 4.4938 0.4018 37.9284 -0.0000 0.0000 -43.2701 2.7499 -7.1375 -23.1682 0.0000 -0.0000 -0.6925 10.1346 -1.6274 12.2005 1.0896 3.4577 15.1642 33.1122 1.2033 -10.2126 -18.5627 -9.2727 10.4072 16.6184 4.7994 52.6122 -43.8123 -58.1770 -0.0003 -54.9196 -0.0002 -20.4167 18.3932 16.5143 -0.0000 0.0000 -0.0000 -0.0000 0.0000 -0.0000 2.6042 3.5641 -2.6456 -20.8914 22.1449 69.7193 -0.0004 63.6545 0.0003 -9.4999 0.6720 -11.8660 -0.0000 0.0000 -0.0000 -0.0000 0.0000 -0.0000
 -47.5137 31.8630 40.5455 136.5303 58.2568 -140.0524 -71.7567 9.0084 3.1976 63.3894 -0.0000 0.0000 -25.9551 0.5280 16.4168 -10.6776 0.0000 -0.0000 13.9838 0.2662 -4.7768 10.6892 0.0000 -0.0000 -9.2101 4.4044 -4.4544 -38.4388 0.0000 -0.0000 -1.4725 11.8674 -3.9907 8.5389 2.2054 0.2100 17.2532 31.6392 0.7368 -10.2818 -24.1191 -5.8487 11.5313 16.8037 9.2157 58.0769 -38.6934 -56.5690 -0.0003 -58.8170 -0.0002 -25.7474 18.1825 20.6507 -0.0000 0.0000 -0.0000 -0.0000 0.0000 -0.0000 2.2749 2.3105 -5.8960 -21.3784 14.8260 67.3278 -0.0013 80.7894 0.0011 -11.8241 2.1458 -12.3349 -0.0000 0.0000 -0.0000 -0.0000 0.0000 -0.0000
 -40.6535 32.8239 36.6143 133.4150 59.4915 -138.0882 -69.8839 11.5912 5.5709 42.0433 -0.0000 0.0000 -26.7199 -0.1211 13.7782 -11.5428 0.0000 -0.0000 19.1005 -2.3148 -6.9698 11.1962 -0.0000 0.0000 13.4442 7.1646 4.2475 -18.2283 -0.0000 -0.0000 -1.8751 13.8369 -4.7773 8.4914 3.8793 -1.8923 17.2368 32.7496 -0.8522 -11.4876 -26.5488 -3.1179 10.6350 17.3889 8.0249 53.6819 -35.6736 -57.0624 -0.0003 -56.1064 -0.0002 -24.3003 18.1060 20.5797 -0.0000 -0.0000 0.0000 -0.0000 -0.0000 0.0000 2.0052 3.9123 -6.6959 -20.4771 10.2988 66.4942 -0.0017 83.0513 0.0015 -13.6576 2.0461 -14.6221 -0.0000 0.0000 -0.0000 -0.0000 0.0000 -0.0000
 -33.7169 32.4694 32.4688 133.3678 62.7866 -138.2663 -60.8779 5.8182 4.6501 46.3522 -0.0000 0.0000 -27.3023 2.4567 13.5488 -12.1050 0.0000 0.0000 13.0676 3.7110 -8.8955 33.4578 0.0000 0.0000 6.4725 6.2137 0.1878 -18.2315 -0.0000 0.0000 -1.7304 12.8432 -5.7220 10.4423 2.9894 -3.4801 17.0063 33.6383 -0.8224 -13.6408 -22.4212 -4.3823 9.7792 16.7132 4.2770 41.7145 -35.1949 -61.1587 -0.0002 -48.5514 -0.0001 -22.5187 17.8418 22.3033 -0.0000 0.0000 -0.0000 -0.0000 0.0000 -0.0000 2.5697 4.7048 -5.1298 -16.6794 13.6343 69.6347 -0.0010 78.2713 0.0008 -12.3103 0.6855 -14.1636 -0.0000 0.0000 -0.0000 -0.0000 0.0000 -0.0000
 -27.3530 31.5608 28.3199 143.7533 56.2195 -145.4821 -55.8491 4.5637 -4.9737 60.0530 -0.0000 0.0000 -24.8467 0.7290 16.7222 -7.4798 -0.0000 -0.0000 -3.1386 1.9650 -9.0007 58.3244 -0.0000 0.0000 -13.8779 -0.4648 -4.0136 -18.1665 0.0000 0.0000 -1.0565 7.4380 -7.6512 11.2721 -2.3103 -5.1382 15.4905 34.1444 1.1598 -14.8533 -19.3556 -5.3483 8.9161 11.4955 -1.5322 27.7045 -40.8808 -56.1308 -0.0002 -37.7560 -0.0001 -18.2404 19.2728 21.1284 -0.0000 0.0000 -0.0000 -0.0000 0.0000 -0.0000 5.5800 1.9208 -0.8014 -7.7333 18.2191 71.5967 -0.0006 70.9971 0.0004 -11.2304 0.7051 -12.8741 -0.0000 0.0000 -0.0000 -0.0000 0.0000 -0.0000
 -21.0377 31.1942 24.2917 150.2365 52.5045 -151.8507 -41.4988 3.6988 -7.3344 63.2870 -0.0000 0.0000 -35.5700 -3.3878 19.3231 -7.8422 0.0000 0.0000 -27.9599 7.1263 -6.0433 82.0469 -0.0000 0.0000 -27.0704 -0.3220 -9.6035 -16.5155 0.0000 -0.0000 -1.0508 5.1693 -7.1014 13.1889 -4.3322 -4.2128 14.6244 34.2119 2.1106 -12.1667 -20.0705 -3.5841 6.4954 9.3820 -1.2766 1.2331 -46.3544 -58.8870 -0.0002 -38.0468 -0.0001 -6.3595 19.0984 19.9949 -0.0000 0.0000 -0.0000 -0.0000 0.0000 -0.0000 6.5767 -0.5246 -0.6739 9.3718 25.7305 72.2113 -0.0003 57.6707 0.0002 -17.4476 -1.3790 -15.3268 -0.0000 0.0000 -0.0000 -0.0000 0.0000 -0.0000
 -14.1489 31.6238 19.9527 154.7208 52.0251 -160.5899 -19.3693 -1.9053 -3.8032 52.9200 -0.0000 0.0000 -39.0572 -2.1480 19.8789 -12.4386 0.0000 0.0000 -50.4379 6.7668 -0.2230 82.7401 -0.0000 0.0000 -27.9598 -0.3121 -10.2545 -16.6988 0.0000 -0.0000 -1.2940 3.4162 -3.9930 13.8931 -4.8104 0.7198 15.9298 35.5963 0.9817 -10.4142 -19.7452 -4.2297 4.8263 7.7868 2.4733 -22.2799 -30.6629 -71.9651 -0.0004 -64.7227 -0.0003 -16.0176 14.2705 27.2050 -0.0000 0.0000 -0.0000 -0.0000 0.0000 -0.0000 9.9355 -3.9831 -2.8760 34.0690 30.2271 65.3305 -0.0005 65.7445 0.0003 -20.8069 0.3694 -13.1834 -0.0000 0.0000 -0.0000 -0.0000 0.0000 -0.0000
 -6.1800 32.9274 14.9831 157.9218 55.8825 -167.9512 6.4692 -0.6744 2.9105 33.5062 -0.0000 0.0000 -15.9802 -3.5896 16.4672 -29.6161 -0.0000 -0.0000 -57.9153 6.2077 6.0389 59.2543 -0.0000 0.0000 -22.3755 8.8981 -3.8866 -20.0607 0.0000 -0.0000 -3.2813 1.0609 -1.0766 14.9867 -6.6100 4.3656 21.5154 37.5765 -0.9476 -8.1412 -15.2805 -4.5317 4.1243 8.5640 5.5096 -24.5855 -23.8869 -69.9310 -0.0075 -88.3994 -0.0073 -13.5659 12.6102 31.5336 -0.0000 0.0000 -0.0000 -0.0000 0.0000 -0.0000 12.0534 -4.3143 -7.2954 49.8742 30.7599 60.2956 -0.0006 71.4857 0.0005 -23.7998 0.8072 -9.8280 -0.0000 0.0000 -0.0000 -0.0000 0.0000 -0.0000
 1.9645 33.6824 9.4492 162.8435 55.9834 -171.4369 20.6978 4.0162 3.7781 26.7522 -0.0000 0.0000 13.8558 -6.1802 10.4920 -7.0377 0.0000 -0.0000 -51.0211 8.4314 5.2333 28.2263 -0.0000 0.0000 -13.8982 2.0521 -7.9129 -19.9971 0.0000 -0.0000 -4.5827 -1.4210 -0.7942 13.9527 -9.3508 4.7468 23.1481 33.9736 0.7623 -0.6065 -9.8822 -4.0827 3.6733 8.6006 7.5093 -17.0909 -20.9799 -68.8870 -179.9991 -77.4412 -179.9988 -14.7898 9.0847 31.8719 -0.0000 0.0000 -0.0000 -0.0000 0.0000 -0.0000 13.1380 -6.7162 -9.4075 50.7647 26.3223 61.0527 -0.0007 72.1193 0.0005 -23.4707 -0.1493 -6.9290 -0.0000 0.0000 -0.0000 -0.0000 0.0000 -0.0000
 9.9649 33.0101 4.0437 167.0706 54.6731 -174.4796 18.1766 7.0343 6.0659 48.1712 -0.0000 0.0000 1.6468 5.8665 12.7225 -9.8652 0.0000 -0.0000 -44.3643 6.1080 4.4657 26.6979 -0.0000 0.0000 -15.1559 3.0306 -6.2641 -20.3611 0.0000 -0.0000 -5.3642 -1.5831 -0.6093 12.6407 -9.3120 6.0242 19.4619 30.5825 1.7051 7.3370 -9.4289 -0.9658 4.7182 9.9160 6.3707 -7.3350 -26.3410 -71.4764 -179.9986 -81.6361 -179.9983 -13.0473 9.4752 29.9860 -0.0000 0.0000 -0.0000 -0.0000 0.0000 -0.0000 11.7845 -7.8298 -6.1763 43.5780 20.4963 64.9200 -0.0006 69.3671 0.0004 -25.1448 0.1972 -11.8557 -0.0000 -0.0000 0.0000 -0.0000 -0.0000 0.0000
 17.4701 31.8468 -0.8077 170.7721 57.9350 179.1732 5.1544 8.5761 11.4537 75.8139 -0.0000 0.0000 -9.2707 10.2401 15.9936 -9.9880 0.0000 0.0000 -42.8429 2.9330 10.5381 52.0287 -0.0000 0.0000 -14.7647 6.7092 -4.4893 -14.8418 0.0000 -0.0000 -5.2175 2.1622 2.1905 11.8410 -4.9917 9.2926 18.6040 30.6323 0.0527 5.5573 -12.3856 -1.4316 6.9830 11.4417 0.5376 1.6868 -33.8990 -70.6888 -0.0008 -74.4208 -0.0006 -11.5940 14.8748 24.8096 -0.0000 0.0000 -0.0000 -0.0000 0.0000 -0.0000 9.6876 -5.7752 1.0134 29.0264 19.7038 64.6251 -0.0004 59.0369 0.0002 -30.4714 -0.0188 -12.3332 -0.0000 0.0000 -0.0000 -0.0000 0.0000 -0.0000
 23.9516 32.6922 -5.4012 175.1920 57.0115 176.7014 -14.1218 0.3858 9.6912 87.8171 -0.0000 0.0000 -15.0904 0.3844 15.7081 -9.8030 0.0000 0.0000 -25.6401 6.0614 10.4294 52.2545 -0.0000 0.0000 -26.7389 4.4390 -8.2391 -14.4435 0.0000 -0.0000 -3.7530 3.6886 1.4890 10.3965 -3.9165 8.3265 17.9313 29.5839 1.7585 7.2350 -12.4309 -1.8761 8.7976 13.7404 0.2035 12.4187 -34.7264 -71.8749 -0.0003 -58.0590 -0.0002 -15.4689 29.3751 29.3493 -0.0000 0.0000 -0.0000 -0.0000 0.0000 -0.0000 7.4584 -3.0845 2.2026 5.0307 23.0562 69.5709 -0.0003 52.9246 0.0001 -13.4537 -1.1848 -16.1335 -0.0000 0.0000 -0.0000 -0.0000 0.0000 -0.0000
 29.9435 34.9976 -10.4215 177.1536 56.2766 -179.2855 -28.9037 -2.0849 0.7758 70.8024 -0.0000 0.0000 -14.9815 0.3439 16.1308 -10.7878 0.0000 0.0000 -4.2468 7.4850 2.1253 38.4689 0.0000 0.0000 -17.2650 5.6499 -9.6689 -26.7780 0.0000 -0.0000 -3.7890 7.8766 -0.4226 9.8633 -0.6903 3.2991 18.7789 26.8971 1.9732 6.7955 -16.2135 1.5625 9.4126 16.7351 2.0726 32.6394 -35.2959 -60.5913 -0.0007 -72.2466 -0.0005 -17.3295 23.5196 19.6762 -0.0000 0.0000 -0.0000 -0.0000 0.0000 -0.0000 5.2329 -0.9274 -1.6228 -4.0139 11.5995 76.3355 -0.0012 79.9622 0.0010 -21.3733 1.6790 -15.4345 -0.0000 0.0000 -0.0000 -0.0000 0.0000 -0.0000
